<svg width="47" height="45" viewBox="0 0 47 45" fill="none" xmlns="http://www.w3.org/2000/svg">
<path d="M38.5157 13.8403C39.2172 15.0318 39.1367 16.4583 38.3047 17.5629L20.0376 41.827C19.2842 42.8276 18.0342 43.3451 16.7494 43.1098C15.4912 42.879 14.4874 41.9719 14.1312 40.7433L11.3147 31.0384L11.0214 30.029L10.281 29.2828L3.161 22.1118C2.25947 21.2044 1.9532 19.8866 2.36172 18.6744C2.76604 17.4761 3.79831 16.6003 5.07872 16.4213L35.1582 12.2189C36.5277 12.0272 37.8142 12.6489 38.5157 13.8403Z" fill="white"/>
<path d="M11.3148 31.0383L14.1313 40.7432C14.4875 41.9718 15.4912 42.8789 16.7494 43.1098C18.0343 43.3451 19.2844 42.8275 20.0377 41.8269L38.3048 17.5628C39.1368 16.4582 39.2173 15.0317 38.5158 13.8402L11.0215 30.0289L11.3148 31.0383Z" fill="white"/>
<path d="M22.2098 23.4412C22.4951 23.9257 22.334 24.5502 21.8488 24.8359L11.3147 31.0383L11.0214 30.0289L10.281 29.2827L20.8151 23.0802C21.3002 22.7946 21.9245 22.9567 22.2098 23.4412Z" fill="url(#paint0_linear_1_491)"/>
<path d="M11.3147 31.0385L21.8488 24.836C22.3339 24.5503 22.4951 23.9259 22.2098 23.4413L11.0214 30.029L11.3147 31.0385Z" fill="url(#paint1_linear_1_491)"/>
<defs>
<linearGradient id="paint0_linear_1_491" x1="18.4038" y1="24.5663" x2="19.5608" y2="26.8375" gradientUnits="userSpaceOnUse">
<stop stop-color="#747DEF"/>
<stop offset="1" stop-color="#5E3BE1"/>
</linearGradient>
<linearGradient id="paint1_linear_1_491" x1="18.9061" y1="25.4196" x2="19.5198" y2="26.5386" gradientUnits="userSpaceOnUse">
<stop stop-color="#747DEF"/>
<stop offset="1" stop-color="#5E3BE1"/>
</linearGradient>
</defs>
</svg>
